<svg width="297" height="516" viewBox="0 0 297 516" fill="none" xmlns="http://www.w3.org/2000/svg">
<path d="M4.38023 476.266L73.9846 500.782L74.2098 500.267L81.8328 478.003C79.6777 477.328 57.9987 470.282 57.9344 469.606V469.349H57.0338C52.8202 468.255 33.1998 470.539 19.5298 467.515C12.9038 466.099 5.69898 467.612 4.38023 476.266Z" fill="black"/>
<path d="M221.138 507.088V507.828L260.057 507.056L291.482 491.838L281.125 471.151L258.932 480.223C246.87 486.304 246.452 494.444 240.405 494.251C230.144 493.833 221.91 501.554 221.138 507.088Z" fill="black"/>
<path d="M280.032 254.754L281.833 255.204C300.231 200.735 277.619 132.946 218.951 106.918L192.898 102.414C192.981 100.864 192.55 99.3293 191.671 98.0494C190.793 96.7695 189.517 95.8155 188.041 95.3357C187.706 95.2267 187.361 95.1512 187.011 95.1105C176.565 93.8347 166.001 93.8347 155.554 95.1105C155.021 95.2057 154.503 95.3679 154.01 95.5931C151.405 97.1374 150.794 99.5182 149.765 102.028C149.765 102.028 125.77 100.355 119.112 107.787C107.146 121.074 93.8947 141.44 92.9297 141.15C91.9648 140.861 91.2893 113.353 91.6431 84.8472V84.2681C90.423 84.0655 89.219 83.7752 88.0407 83.3994C84.8413 83.2249 81.716 82.3693 78.8737 80.8899V80.6969L76.59 81.7264L75.4643 82.2734V82.5308C73.4379 99.3252 66.04 167.178 77.6515 179.469C82.6048 184.713 127.893 152.443 127.893 152.443C127.893 152.443 110.041 262.154 109.237 274.444H114.834L235.516 275.28C235.291 251.923 223.969 176.509 219.112 144.786C219.112 144.786 271.283 175.029 261.569 248.93C261.408 250.314 275.046 253.692 280.032 254.754Z" fill="black"/>
<path d="M140.662 45.821C140.308 46.312 140.157 46.9207 140.241 47.5201C140.325 48.1196 140.637 48.6635 141.112 49.0384C141.61 49.3609 142.211 49.4833 142.795 49.381C143.378 49.2788 143.902 48.9595 144.26 48.4871C144.618 48.0147 144.785 47.4243 144.726 46.8343C144.667 46.2444 144.387 45.6985 143.943 45.3063C143.694 45.1246 143.411 44.9937 143.111 44.9213C142.812 44.8488 142.5 44.8361 142.196 44.8839C141.891 44.9317 141.599 45.0391 141.336 45.1999C141.073 45.3607 140.844 45.5717 140.662 45.821Z" fill="black"/>
<path d="M161.633 44.1802C161.438 44.4791 161.369 44.8432 161.442 45.1928C161.514 45.5425 161.722 45.8493 162.019 46.0462C162.32 46.2333 162.682 46.2975 163.029 46.2257C163.376 46.1538 163.683 45.9514 163.885 45.6601C163.98 45.5102 164.045 45.3429 164.075 45.168C164.106 44.993 164.101 44.8137 164.063 44.6404C164.024 44.4671 163.951 44.3031 163.849 44.1579C163.747 44.0127 163.617 43.8891 163.467 43.7941C163.321 43.6982 163.158 43.6321 162.987 43.5997C162.816 43.5672 162.64 43.5689 162.47 43.6048C162.299 43.6407 162.137 43.7101 161.994 43.8088C161.85 43.9076 161.728 44.0338 161.633 44.1802Z" fill="black"/>
<path d="M71.9261 506.638L2.00005 482.379L3.9943 476.588L73.9203 500.846L71.9261 506.638Z" stroke="black" stroke-width="3.31642" stroke-linecap="round" stroke-linejoin="round"/>
<path d="M163.242 336.216C163.08 336.377 162.929 336.549 162.791 336.731C158.513 342.104 126.735 384.605 125.705 386.792C118.211 402.879 84.8885 471.665 81.9936 478.068C79.8386 477.392 58.1596 470.346 58.0953 469.671V469.413C57.7093 461.724 67.7447 406.064 77.3941 353.59C77.973 350.372 99.0087 305.33 115.155 274.733" stroke="black" stroke-width="3.31642" stroke-miterlimit="10" stroke-linecap="round"/>
<path d="M57.0018 469.381C52.7882 468.287 33.1678 470.571 19.4978 467.547C13.0648 466.099 5.69913 467.547 4.38037 476.266L73.9848 500.782" stroke="black" stroke-width="3.31642" stroke-linecap="round" stroke-linejoin="round"/>
<path d="M82.058 477.295L81.8329 478.003L74.2098 500.267" stroke="black" stroke-width="3.31642" stroke-miterlimit="10"/>
<path d="M257.356 480.835C252.113 477.36 203.126 424.339 182.508 396.509C175.432 386.857 168.903 361.955 162.791 336.731C159.125 321.61 155.586 306.392 152.177 294.423" stroke="black" stroke-width="3.31642" stroke-miterlimit="10" stroke-linecap="round"/>
<path d="M231.399 276.921C231.399 286.058 231.399 296.225 231.399 306.231C231.817 332.613 233.329 359.188 238.25 369.387C251.116 396.026 280.836 470.893 280.836 470.893" stroke="black" stroke-width="3.31642" stroke-miterlimit="10" stroke-linecap="round"/>
<path d="M207.822 288.407C211.231 300.214 220.688 305.523 231.527 306.231C236.326 306.519 241.139 306.019 245.776 304.751" stroke="black" stroke-width="3.31642" stroke-miterlimit="10" stroke-linecap="round"/>
<path d="M291.514 491.838L295.02 498.369L261.569 513.844L221.17 513.941L221.106 507.828H221.138L260.09 507.056L291.514 491.838Z" stroke="black" stroke-width="3.31642" stroke-linecap="round" stroke-linejoin="round"/>
<path d="M221.138 507.088C221.91 501.554 230.144 493.833 240.437 494.219C246.484 494.412 246.87 486.272 258.964 480.191L281.157 471.118L291.514 491.806" stroke="black" stroke-width="2.48135" stroke-linecap="round" stroke-linejoin="round"/>
<path d="M152.274 51.8374C152.274 54.6365 152.692 60.0416 157.066 57.4677" stroke="black" stroke-width="3.31642" stroke-miterlimit="10" stroke-linecap="round"/>
<path d="M143.685 64.5458C148.221 70.9805 153.078 76.096 155.168 76.7073C155.724 76.8687 156.296 76.9659 156.873 76.9969C163.595 77.5438 171.379 70.8518 173.599 64.7389" stroke="black" stroke-width="3.31642" stroke-miterlimit="10" stroke-linecap="round"/>
<path d="M130.787 29.863C129.428 33.4937 128.405 37.2415 127.732 41.0593C126.735 47.4939 131.881 57.6607 137.606 65.897" stroke="black" stroke-width="3.31642" stroke-miterlimit="10" stroke-linecap="round"/>
<path d="M178.745 28.9945C178.584 28.3832 178.166 26.2276 177.33 23.3642C176.976 22.1416 176.558 20.8225 176.011 19.4069C175.464 17.9913 175.014 16.8009 174.403 15.4496C171.508 9.30455 166.941 3.15947 159.897 2.09775C155.104 1.35777 150.665 4.89682 146.838 10.0767C145.235 12.3084 143.795 14.6524 142.528 17.0905C140.496 20.9869 138.734 25.018 137.253 29.1554" stroke="black" stroke-width="3.31642" stroke-miterlimit="10" stroke-linecap="round"/>
<path d="M188.041 95.4643C186.143 76.9647 185.339 61.1677 181.865 42.8611" stroke="black" stroke-width="3.31642" stroke-miterlimit="10"/>
<path d="M156.873 76.9969C157.163 84.2037 158.063 88.9653 155.522 94.9817" stroke="black" stroke-width="3.31642" stroke-miterlimit="10"/>
<path d="M176.461 32.7587C177.119 31.4974 177.941 30.329 178.906 29.284C185.725 22.045 192.126 35.7186 189.456 40.2229C188.587 41.3261 187.415 42.1514 186.083 42.5972C184.752 43.043 183.319 43.09 181.962 42.7324C181.343 42.6174 180.739 42.434 180.16 42.1854" stroke="black" stroke-width="3.31642" stroke-miterlimit="10" stroke-linecap="round"/>
<path d="M177.04 23.2999H177.265C180.482 23.9755 203.93 27.6433 202.997 20.0826C202.579 16.2861 189.327 15.2888 174.757 15.3853H174.242C163.145 15.3853 149.7 16.5113 142.335 17.0905" stroke="black" stroke-width="3.31642" stroke-miterlimit="10"/>
<path d="M137.864 39.8689C139.006 39.1077 140.311 38.6241 141.674 38.4565C143.036 38.2889 144.419 38.4421 145.712 38.9037" stroke="black" stroke-width="3.31642" stroke-miterlimit="10" stroke-linecap="round"/>
<path d="M180.9 34.7856C182.402 35.8933 184.249 36.4294 186.111 36.2978" stroke="black" stroke-width="3.31642" stroke-miterlimit="10" stroke-linecap="round"/>
<path d="M130.755 29.5415H130.562C128.144 30.0126 125.842 30.9555 123.789 32.3164C121.735 33.6773 119.969 35.4295 118.592 37.473C117.215 39.5165 116.254 41.8112 115.764 44.2262C115.273 46.6412 115.263 49.1291 115.734 51.548C116.205 53.9668 117.148 56.2692 118.509 58.3236C119.869 60.378 121.621 62.1443 123.664 63.5216C125.707 64.8988 128.001 65.8601 130.415 66.3505C132.83 66.841 135.317 66.8509 137.735 66.3798C140.503 65.7875 143.1 64.573 145.329 62.8283C147.558 61.0836 149.361 58.8544 150.601 56.3096C152.778 51.8373 153.093 46.684 151.477 41.9798C149.861 37.2755 146.446 33.4042 141.981 31.2145C140.651 30.5555 139.247 30.0586 137.799 29.7346L137.027 29.5737C134.954 29.2046 132.833 29.1937 130.755 29.5415Z" stroke="black" stroke-width="3.31642" stroke-linecap="round" stroke-linejoin="round"/>
<path d="M159.929 36.1369C161.14 35.5025 162.483 35.1579 163.85 35.13C165.217 35.102 166.573 35.3917 167.809 35.976" stroke="black" stroke-width="3.31642" stroke-miterlimit="10" stroke-linecap="round"/>
<path d="M164.046 65.6719C163.591 66.3766 162.986 66.9722 162.275 67.4161C161.563 67.86 160.763 68.1411 159.93 68.2395C159.097 68.3378 158.253 68.251 157.458 67.9851C156.662 67.7192 155.935 67.2809 155.329 66.7014" stroke="black" stroke-width="3.31642" stroke-miterlimit="10" stroke-linecap="round"/>
<path d="M104.252 74.7768C106.889 72.4926 103.962 65.9292 101.389 62.2936C100.958 61.6546 100.462 61.0616 99.9094 60.5241C99.3679 59.9698 98.7141 59.5376 97.992 59.2567C97.2699 58.9757 96.496 58.8524 95.7223 58.8951C94.9486 58.9377 94.193 59.1453 93.5061 59.504C92.8192 59.8626 92.2169 60.364 91.7396 60.9745" stroke="black" stroke-width="3.31642" stroke-linecap="round" stroke-linejoin="round"/>
<path d="M93.2192 76.8359C93.2347 76.9642 93.2347 77.0938 93.2192 77.222C93.4444 79.0881 98.044 78.1872 97.4328 74.4873" stroke="black" stroke-width="3.31642" stroke-linecap="round" stroke-linejoin="round"/>
<path d="M88.2015 66.4762C90.5218 69.5763 92.2252 73.0932 93.2192 76.836" stroke="black" stroke-width="3.31642" stroke-linecap="round" stroke-linejoin="round"/>
<path d="M96.5 66.5406C95.7394 64.4666 94.2385 62.7476 92.2864 61.7146C92.1063 61.6023 91.9114 61.5157 91.7074 61.4572C88.4909 60.299 85.2745 62.4224 87.3974 65.4788L88.2015 66.5727" stroke="black" stroke-width="3.31642" stroke-linecap="round" stroke-linejoin="round"/>
<path d="M82.5727 71.7525C86.2395 70.3691 86.9149 74.616 87.4939 77.3185C87.5054 77.5543 87.5054 77.7905 87.4939 78.0263C87.7164 78.695 88.1775 79.258 88.7891 79.6078C89.4007 79.9576 90.1198 80.0695 90.8088 79.9221C91.4977 79.7748 92.1081 79.3784 92.5232 78.809C92.9382 78.2396 93.1288 77.5371 93.0584 76.8359" stroke="black" stroke-width="3.31642" stroke-linecap="round" stroke-linejoin="round"/>
<path d="M88.2015 66.4762C86.3359 64.1276 84.5347 63.4198 82.1223 64.5459C80.4634 65.4606 79.0952 66.8236 78.1738 68.4791C77.2524 70.1346 76.815 72.0159 76.9116 73.9082" stroke="black" stroke-width="3.31642" stroke-linecap="round" stroke-linejoin="round"/>
<path d="M105.506 67.9562L110.266 65.5111C110.713 65.2831 111.053 64.8905 111.215 64.4161C111.377 63.9417 111.348 63.4229 111.135 62.9694V62.712L109.945 60.3312C109.832 60.1058 109.676 59.9051 109.485 59.7407C109.295 59.5763 109.073 59.4516 108.833 59.3737C108.594 59.2958 108.341 59.2665 108.09 59.2872C107.839 59.308 107.595 59.3785 107.372 59.4947L102.064 62.1329" stroke="black" stroke-width="3.31642" stroke-linecap="round" stroke-linejoin="round"/>
<path d="M82.8621 71.624H82.5726L77.0081 74.037L74.3706 75.1631L70.736 76.9648C70.2897 77.1927 69.9495 77.5854 69.7874 78.0598C69.6253 78.5341 69.6541 79.0529 69.8676 79.5064V79.7317L71.1542 82.3055C71.3883 82.7543 71.7867 83.0953 72.2662 83.2571C72.7457 83.419 73.2692 83.3893 73.7273 83.1742L75.3999 82.3055L76.5257 81.7586L78.8094 80.729L86.6575 77.2222" stroke="black" stroke-width="3.31642" stroke-linecap="round" stroke-linejoin="round"/>
<path d="M109.913 60.3312V60.6207L110.878 62.5189C110.868 62.5829 110.868 62.648 110.878 62.712C111.058 62.9551 111.317 63.1271 111.611 63.1977C111.906 63.2683 112.215 63.233 112.486 63.098L117.439 60.5885C117.736 60.4248 117.959 60.1529 118.06 59.8294C118.162 59.5059 118.136 59.1556 117.986 58.8512L117.053 56.9851C116.978 56.8323 116.873 56.6959 116.745 56.5839C116.617 56.4719 116.467 56.3864 116.306 56.3326C116.144 56.2787 115.973 56.2575 115.804 56.2701C115.634 56.2827 115.468 56.3289 115.316 56.406L110.363 58.9155C110.147 59.0728 109.987 59.2949 109.906 59.5495C109.825 59.8041 109.827 60.078 109.913 60.3312Z" stroke="black" stroke-width="3.31642" stroke-linecap="round" stroke-linejoin="round"/>
<path d="M78.9702 81.0185C81.8126 82.4979 84.9379 83.3534 88.1372 83.528C89.3156 83.9038 90.5195 84.1941 91.7396 84.3967C96.5643 85.2332 104.606 85.0723 104.091 75.0343C104.075 74.9492 104.075 74.862 104.091 74.7769C103.923 73.3768 103.479 72.0241 102.783 70.7978C102.087 69.5715 101.154 68.4961 100.038 67.6344C99.0169 66.8997 97.7901 66.5057 96.5322 66.5084H95.9532C95.351 66.6034 94.8061 66.92 94.4252 67.3962C94.0444 67.8724 93.8551 68.4737 93.8947 69.0822C93.8947 70.4657 96.4357 71.7204 97.6901 74.2943C98.2128 75.3507 98.4353 76.5304 98.3334 77.7046" stroke="black" stroke-width="3.31642" stroke-linecap="round" stroke-linejoin="round"/>
<path d="M91.6431 85.0081C91.2893 113.514 92.3507 141.15 92.9297 141.311C93.5087 141.472 107.146 121.235 119.112 107.948C125.77 100.516 149.765 102.189 149.765 102.189C150.826 99.5182 151.405 97.1374 154.01 95.7539C154.503 95.5287 155.021 95.3666 155.554 95.2713C166.001 93.9955 176.565 93.9955 187.011 95.2713C187.361 95.3121 187.706 95.3875 188.041 95.4965C189.517 95.9763 190.793 96.9303 191.671 98.2102C192.55 99.4902 192.981 101.024 192.898 102.575L218.951 107.079C277.619 133.139 300.231 200.896 281.833 255.365L280.032 254.915C275.046 253.724 261.408 250.346 261.569 248.963C271.283 175.029 219.273 144.915 219.273 144.915C224.129 176.637 235.355 252.051 235.677 275.409L114.995 274.572H109.398C110.202 262.282 128.054 152.572 128.054 152.572C128.054 152.572 82.7656 184.745 77.8123 179.597C66.2008 167.307 73.5987 99.4538 75.6251 82.6594" stroke="black" stroke-width="2.48135" stroke-linecap="round" stroke-linejoin="round"/>
<path d="M260.894 265.564C256.037 279.817 263.081 292.943 269.9 288.664" stroke="black" stroke-width="3.31642" stroke-linecap="round" stroke-linejoin="round"/>
<path d="M266.33 268.266C265.287 271.582 265.035 275.095 265.593 278.526C266.152 281.956 267.506 285.208 269.546 288.021L269.996 288.664C271.154 290.144 273.213 292.493 275.304 291.045C275.975 290.502 276.431 289.737 276.59 288.888C276.749 288.04 276.601 287.162 276.172 286.412" stroke="black" stroke-width="3.31642" stroke-linecap="round" stroke-linejoin="round"/>
<path d="M272.891 269.875C271.251 275.023 274.918 287.023 278.134 288.632C281.929 290.755 283.891 286.605 282.026 283.034C275.786 271.033 284.117 260.738 280.032 254.882" stroke="black" stroke-width="3.31642" stroke-linecap="round" stroke-linejoin="round"/>
<path d="M259.157 274.991C258.468 275.044 257.776 274.937 257.135 274.678C256.494 274.418 255.923 274.014 255.464 273.497C255.006 272.979 254.674 272.363 254.495 271.695C254.315 271.028 254.292 270.328 254.429 269.65C255.339 262.735 258.425 256.29 263.242 251.247" stroke="black" stroke-width="3.31642" stroke-linecap="round" stroke-linejoin="round"/>
</svg>
